%TF.GenerationSoftware,KiCad,Pcbnew,9.0.6*%
%TF.CreationDate,2026-03-06T21:36:24+00:00*%
%TF.ProjectId,kicadproject,6b696361-6470-4726-9f6a-6563742e6b69,rev?*%
%TF.SameCoordinates,Original*%
%TF.FileFunction,Legend,Top*%
%TF.FilePolarity,Positive*%
%FSLAX46Y46*%
G04 Gerber Fmt 4.6, Leading zero omitted, Abs format (unit mm)*
G04 Created by KiCad (PCBNEW 9.0.6) date 2026-03-06 21:36:24*
%MOMM*%
%LPD*%
G01*
G04 APERTURE LIST*
%ADD10C,0.150000*%
%ADD11C,0.120000*%
%ADD12C,0.000000*%
G04 APERTURE END LIST*
D10*
X101655655Y-42948569D02*
X101655655Y-41948569D01*
X101655655Y-41948569D02*
X101893750Y-41948569D01*
X101893750Y-41948569D02*
X102036607Y-41996188D01*
X102036607Y-41996188D02*
X102131845Y-42091426D01*
X102131845Y-42091426D02*
X102179464Y-42186664D01*
X102179464Y-42186664D02*
X102227083Y-42377140D01*
X102227083Y-42377140D02*
X102227083Y-42519997D01*
X102227083Y-42519997D02*
X102179464Y-42710473D01*
X102179464Y-42710473D02*
X102131845Y-42805711D01*
X102131845Y-42805711D02*
X102036607Y-42900950D01*
X102036607Y-42900950D02*
X101893750Y-42948569D01*
X101893750Y-42948569D02*
X101655655Y-42948569D01*
X102608036Y-42043807D02*
X102655655Y-41996188D01*
X102655655Y-41996188D02*
X102750893Y-41948569D01*
X102750893Y-41948569D02*
X102988988Y-41948569D01*
X102988988Y-41948569D02*
X103084226Y-41996188D01*
X103084226Y-41996188D02*
X103131845Y-42043807D01*
X103131845Y-42043807D02*
X103179464Y-42139045D01*
X103179464Y-42139045D02*
X103179464Y-42234283D01*
X103179464Y-42234283D02*
X103131845Y-42377140D01*
X103131845Y-42377140D02*
X102560417Y-42948569D01*
X102560417Y-42948569D02*
X103179464Y-42948569D01*
X99422321Y-44731045D02*
X98965178Y-44731045D01*
X99193750Y-44731045D02*
X99193750Y-43931045D01*
X99193750Y-43931045D02*
X99117559Y-44045330D01*
X99117559Y-44045330D02*
X99041369Y-44121521D01*
X99041369Y-44121521D02*
X98965178Y-44159616D01*
X127616667Y-84407200D02*
X127759524Y-84454819D01*
X127759524Y-84454819D02*
X127997619Y-84454819D01*
X127997619Y-84454819D02*
X128092857Y-84407200D01*
X128092857Y-84407200D02*
X128140476Y-84359580D01*
X128140476Y-84359580D02*
X128188095Y-84264342D01*
X128188095Y-84264342D02*
X128188095Y-84169104D01*
X128188095Y-84169104D02*
X128140476Y-84073866D01*
X128140476Y-84073866D02*
X128092857Y-84026247D01*
X128092857Y-84026247D02*
X127997619Y-83978628D01*
X127997619Y-83978628D02*
X127807143Y-83931009D01*
X127807143Y-83931009D02*
X127711905Y-83883390D01*
X127711905Y-83883390D02*
X127664286Y-83835771D01*
X127664286Y-83835771D02*
X127616667Y-83740533D01*
X127616667Y-83740533D02*
X127616667Y-83645295D01*
X127616667Y-83645295D02*
X127664286Y-83550057D01*
X127664286Y-83550057D02*
X127711905Y-83502438D01*
X127711905Y-83502438D02*
X127807143Y-83454819D01*
X127807143Y-83454819D02*
X128045238Y-83454819D01*
X128045238Y-83454819D02*
X128188095Y-83502438D01*
X128521429Y-83454819D02*
X128759524Y-84454819D01*
X128759524Y-84454819D02*
X128950000Y-83740533D01*
X128950000Y-83740533D02*
X129140476Y-84454819D01*
X129140476Y-84454819D02*
X129378572Y-83454819D01*
X130188095Y-83454819D02*
X129997619Y-83454819D01*
X129997619Y-83454819D02*
X129902381Y-83502438D01*
X129902381Y-83502438D02*
X129854762Y-83550057D01*
X129854762Y-83550057D02*
X129759524Y-83692914D01*
X129759524Y-83692914D02*
X129711905Y-83883390D01*
X129711905Y-83883390D02*
X129711905Y-84264342D01*
X129711905Y-84264342D02*
X129759524Y-84359580D01*
X129759524Y-84359580D02*
X129807143Y-84407200D01*
X129807143Y-84407200D02*
X129902381Y-84454819D01*
X129902381Y-84454819D02*
X130092857Y-84454819D01*
X130092857Y-84454819D02*
X130188095Y-84407200D01*
X130188095Y-84407200D02*
X130235714Y-84359580D01*
X130235714Y-84359580D02*
X130283333Y-84264342D01*
X130283333Y-84264342D02*
X130283333Y-84026247D01*
X130283333Y-84026247D02*
X130235714Y-83931009D01*
X130235714Y-83931009D02*
X130188095Y-83883390D01*
X130188095Y-83883390D02*
X130092857Y-83835771D01*
X130092857Y-83835771D02*
X129902381Y-83835771D01*
X129902381Y-83835771D02*
X129807143Y-83883390D01*
X129807143Y-83883390D02*
X129759524Y-83931009D01*
X129759524Y-83931009D02*
X129711905Y-84026247D01*
X108416667Y-65493200D02*
X108559524Y-65540819D01*
X108559524Y-65540819D02*
X108797619Y-65540819D01*
X108797619Y-65540819D02*
X108892857Y-65493200D01*
X108892857Y-65493200D02*
X108940476Y-65445580D01*
X108940476Y-65445580D02*
X108988095Y-65350342D01*
X108988095Y-65350342D02*
X108988095Y-65255104D01*
X108988095Y-65255104D02*
X108940476Y-65159866D01*
X108940476Y-65159866D02*
X108892857Y-65112247D01*
X108892857Y-65112247D02*
X108797619Y-65064628D01*
X108797619Y-65064628D02*
X108607143Y-65017009D01*
X108607143Y-65017009D02*
X108511905Y-64969390D01*
X108511905Y-64969390D02*
X108464286Y-64921771D01*
X108464286Y-64921771D02*
X108416667Y-64826533D01*
X108416667Y-64826533D02*
X108416667Y-64731295D01*
X108416667Y-64731295D02*
X108464286Y-64636057D01*
X108464286Y-64636057D02*
X108511905Y-64588438D01*
X108511905Y-64588438D02*
X108607143Y-64540819D01*
X108607143Y-64540819D02*
X108845238Y-64540819D01*
X108845238Y-64540819D02*
X108988095Y-64588438D01*
X109321429Y-64540819D02*
X109559524Y-65540819D01*
X109559524Y-65540819D02*
X109750000Y-64826533D01*
X109750000Y-64826533D02*
X109940476Y-65540819D01*
X109940476Y-65540819D02*
X110178572Y-64540819D01*
X110511905Y-64636057D02*
X110559524Y-64588438D01*
X110559524Y-64588438D02*
X110654762Y-64540819D01*
X110654762Y-64540819D02*
X110892857Y-64540819D01*
X110892857Y-64540819D02*
X110988095Y-64588438D01*
X110988095Y-64588438D02*
X111035714Y-64636057D01*
X111035714Y-64636057D02*
X111083333Y-64731295D01*
X111083333Y-64731295D02*
X111083333Y-64826533D01*
X111083333Y-64826533D02*
X111035714Y-64969390D01*
X111035714Y-64969390D02*
X110464286Y-65540819D01*
X110464286Y-65540819D02*
X111083333Y-65540819D01*
X89944819Y-55181904D02*
X90754342Y-55181904D01*
X90754342Y-55181904D02*
X90849580Y-55134285D01*
X90849580Y-55134285D02*
X90897200Y-55086666D01*
X90897200Y-55086666D02*
X90944819Y-54991428D01*
X90944819Y-54991428D02*
X90944819Y-54800952D01*
X90944819Y-54800952D02*
X90897200Y-54705714D01*
X90897200Y-54705714D02*
X90849580Y-54658095D01*
X90849580Y-54658095D02*
X90754342Y-54610476D01*
X90754342Y-54610476D02*
X89944819Y-54610476D01*
X90040057Y-54181904D02*
X89992438Y-54134285D01*
X89992438Y-54134285D02*
X89944819Y-54039047D01*
X89944819Y-54039047D02*
X89944819Y-53800952D01*
X89944819Y-53800952D02*
X89992438Y-53705714D01*
X89992438Y-53705714D02*
X90040057Y-53658095D01*
X90040057Y-53658095D02*
X90135295Y-53610476D01*
X90135295Y-53610476D02*
X90230533Y-53610476D01*
X90230533Y-53610476D02*
X90373390Y-53658095D01*
X90373390Y-53658095D02*
X90944819Y-54229523D01*
X90944819Y-54229523D02*
X90944819Y-53610476D01*
X115943155Y-42948569D02*
X115943155Y-41948569D01*
X115943155Y-41948569D02*
X116181250Y-41948569D01*
X116181250Y-41948569D02*
X116324107Y-41996188D01*
X116324107Y-41996188D02*
X116419345Y-42091426D01*
X116419345Y-42091426D02*
X116466964Y-42186664D01*
X116466964Y-42186664D02*
X116514583Y-42377140D01*
X116514583Y-42377140D02*
X116514583Y-42519997D01*
X116514583Y-42519997D02*
X116466964Y-42710473D01*
X116466964Y-42710473D02*
X116419345Y-42805711D01*
X116419345Y-42805711D02*
X116324107Y-42900950D01*
X116324107Y-42900950D02*
X116181250Y-42948569D01*
X116181250Y-42948569D02*
X115943155Y-42948569D01*
X117466964Y-42948569D02*
X116895536Y-42948569D01*
X117181250Y-42948569D02*
X117181250Y-41948569D01*
X117181250Y-41948569D02*
X117086012Y-42091426D01*
X117086012Y-42091426D02*
X116990774Y-42186664D01*
X116990774Y-42186664D02*
X116895536Y-42234283D01*
X113709821Y-44731045D02*
X113252678Y-44731045D01*
X113481250Y-44731045D02*
X113481250Y-43931045D01*
X113481250Y-43931045D02*
X113405059Y-44045330D01*
X113405059Y-44045330D02*
X113328869Y-44121521D01*
X113328869Y-44121521D02*
X113252678Y-44159616D01*
X108366667Y-84533200D02*
X108509524Y-84580819D01*
X108509524Y-84580819D02*
X108747619Y-84580819D01*
X108747619Y-84580819D02*
X108842857Y-84533200D01*
X108842857Y-84533200D02*
X108890476Y-84485580D01*
X108890476Y-84485580D02*
X108938095Y-84390342D01*
X108938095Y-84390342D02*
X108938095Y-84295104D01*
X108938095Y-84295104D02*
X108890476Y-84199866D01*
X108890476Y-84199866D02*
X108842857Y-84152247D01*
X108842857Y-84152247D02*
X108747619Y-84104628D01*
X108747619Y-84104628D02*
X108557143Y-84057009D01*
X108557143Y-84057009D02*
X108461905Y-84009390D01*
X108461905Y-84009390D02*
X108414286Y-83961771D01*
X108414286Y-83961771D02*
X108366667Y-83866533D01*
X108366667Y-83866533D02*
X108366667Y-83771295D01*
X108366667Y-83771295D02*
X108414286Y-83676057D01*
X108414286Y-83676057D02*
X108461905Y-83628438D01*
X108461905Y-83628438D02*
X108557143Y-83580819D01*
X108557143Y-83580819D02*
X108795238Y-83580819D01*
X108795238Y-83580819D02*
X108938095Y-83628438D01*
X109271429Y-83580819D02*
X109509524Y-84580819D01*
X109509524Y-84580819D02*
X109700000Y-83866533D01*
X109700000Y-83866533D02*
X109890476Y-84580819D01*
X109890476Y-84580819D02*
X110128572Y-83580819D01*
X110985714Y-83580819D02*
X110509524Y-83580819D01*
X110509524Y-83580819D02*
X110461905Y-84057009D01*
X110461905Y-84057009D02*
X110509524Y-84009390D01*
X110509524Y-84009390D02*
X110604762Y-83961771D01*
X110604762Y-83961771D02*
X110842857Y-83961771D01*
X110842857Y-83961771D02*
X110938095Y-84009390D01*
X110938095Y-84009390D02*
X110985714Y-84057009D01*
X110985714Y-84057009D02*
X111033333Y-84152247D01*
X111033333Y-84152247D02*
X111033333Y-84390342D01*
X111033333Y-84390342D02*
X110985714Y-84485580D01*
X110985714Y-84485580D02*
X110938095Y-84533200D01*
X110938095Y-84533200D02*
X110842857Y-84580819D01*
X110842857Y-84580819D02*
X110604762Y-84580819D01*
X110604762Y-84580819D02*
X110509524Y-84533200D01*
X110509524Y-84533200D02*
X110461905Y-84485580D01*
X127216667Y-65347200D02*
X127359524Y-65394819D01*
X127359524Y-65394819D02*
X127597619Y-65394819D01*
X127597619Y-65394819D02*
X127692857Y-65347200D01*
X127692857Y-65347200D02*
X127740476Y-65299580D01*
X127740476Y-65299580D02*
X127788095Y-65204342D01*
X127788095Y-65204342D02*
X127788095Y-65109104D01*
X127788095Y-65109104D02*
X127740476Y-65013866D01*
X127740476Y-65013866D02*
X127692857Y-64966247D01*
X127692857Y-64966247D02*
X127597619Y-64918628D01*
X127597619Y-64918628D02*
X127407143Y-64871009D01*
X127407143Y-64871009D02*
X127311905Y-64823390D01*
X127311905Y-64823390D02*
X127264286Y-64775771D01*
X127264286Y-64775771D02*
X127216667Y-64680533D01*
X127216667Y-64680533D02*
X127216667Y-64585295D01*
X127216667Y-64585295D02*
X127264286Y-64490057D01*
X127264286Y-64490057D02*
X127311905Y-64442438D01*
X127311905Y-64442438D02*
X127407143Y-64394819D01*
X127407143Y-64394819D02*
X127645238Y-64394819D01*
X127645238Y-64394819D02*
X127788095Y-64442438D01*
X128121429Y-64394819D02*
X128359524Y-65394819D01*
X128359524Y-65394819D02*
X128550000Y-64680533D01*
X128550000Y-64680533D02*
X128740476Y-65394819D01*
X128740476Y-65394819D02*
X128978572Y-64394819D01*
X129264286Y-64394819D02*
X129883333Y-64394819D01*
X129883333Y-64394819D02*
X129550000Y-64775771D01*
X129550000Y-64775771D02*
X129692857Y-64775771D01*
X129692857Y-64775771D02*
X129788095Y-64823390D01*
X129788095Y-64823390D02*
X129835714Y-64871009D01*
X129835714Y-64871009D02*
X129883333Y-64966247D01*
X129883333Y-64966247D02*
X129883333Y-65204342D01*
X129883333Y-65204342D02*
X129835714Y-65299580D01*
X129835714Y-65299580D02*
X129788095Y-65347200D01*
X129788095Y-65347200D02*
X129692857Y-65394819D01*
X129692857Y-65394819D02*
X129407143Y-65394819D01*
X129407143Y-65394819D02*
X129311905Y-65347200D01*
X129311905Y-65347200D02*
X129264286Y-65299580D01*
X89116667Y-84397200D02*
X89259524Y-84444819D01*
X89259524Y-84444819D02*
X89497619Y-84444819D01*
X89497619Y-84444819D02*
X89592857Y-84397200D01*
X89592857Y-84397200D02*
X89640476Y-84349580D01*
X89640476Y-84349580D02*
X89688095Y-84254342D01*
X89688095Y-84254342D02*
X89688095Y-84159104D01*
X89688095Y-84159104D02*
X89640476Y-84063866D01*
X89640476Y-84063866D02*
X89592857Y-84016247D01*
X89592857Y-84016247D02*
X89497619Y-83968628D01*
X89497619Y-83968628D02*
X89307143Y-83921009D01*
X89307143Y-83921009D02*
X89211905Y-83873390D01*
X89211905Y-83873390D02*
X89164286Y-83825771D01*
X89164286Y-83825771D02*
X89116667Y-83730533D01*
X89116667Y-83730533D02*
X89116667Y-83635295D01*
X89116667Y-83635295D02*
X89164286Y-83540057D01*
X89164286Y-83540057D02*
X89211905Y-83492438D01*
X89211905Y-83492438D02*
X89307143Y-83444819D01*
X89307143Y-83444819D02*
X89545238Y-83444819D01*
X89545238Y-83444819D02*
X89688095Y-83492438D01*
X90021429Y-83444819D02*
X90259524Y-84444819D01*
X90259524Y-84444819D02*
X90450000Y-83730533D01*
X90450000Y-83730533D02*
X90640476Y-84444819D01*
X90640476Y-84444819D02*
X90878572Y-83444819D01*
X91688095Y-83778152D02*
X91688095Y-84444819D01*
X91450000Y-83397200D02*
X91211905Y-84111485D01*
X91211905Y-84111485D02*
X91830952Y-84111485D01*
X133281667Y-47182200D02*
X133424524Y-47229819D01*
X133424524Y-47229819D02*
X133662619Y-47229819D01*
X133662619Y-47229819D02*
X133757857Y-47182200D01*
X133757857Y-47182200D02*
X133805476Y-47134580D01*
X133805476Y-47134580D02*
X133853095Y-47039342D01*
X133853095Y-47039342D02*
X133853095Y-46944104D01*
X133853095Y-46944104D02*
X133805476Y-46848866D01*
X133805476Y-46848866D02*
X133757857Y-46801247D01*
X133757857Y-46801247D02*
X133662619Y-46753628D01*
X133662619Y-46753628D02*
X133472143Y-46706009D01*
X133472143Y-46706009D02*
X133376905Y-46658390D01*
X133376905Y-46658390D02*
X133329286Y-46610771D01*
X133329286Y-46610771D02*
X133281667Y-46515533D01*
X133281667Y-46515533D02*
X133281667Y-46420295D01*
X133281667Y-46420295D02*
X133329286Y-46325057D01*
X133329286Y-46325057D02*
X133376905Y-46277438D01*
X133376905Y-46277438D02*
X133472143Y-46229819D01*
X133472143Y-46229819D02*
X133710238Y-46229819D01*
X133710238Y-46229819D02*
X133853095Y-46277438D01*
X134186429Y-46229819D02*
X134424524Y-47229819D01*
X134424524Y-47229819D02*
X134615000Y-46515533D01*
X134615000Y-46515533D02*
X134805476Y-47229819D01*
X134805476Y-47229819D02*
X135043572Y-46229819D01*
X135329286Y-46229819D02*
X135995952Y-46229819D01*
X135995952Y-46229819D02*
X135567381Y-47229819D01*
X89366667Y-65493200D02*
X89509524Y-65540819D01*
X89509524Y-65540819D02*
X89747619Y-65540819D01*
X89747619Y-65540819D02*
X89842857Y-65493200D01*
X89842857Y-65493200D02*
X89890476Y-65445580D01*
X89890476Y-65445580D02*
X89938095Y-65350342D01*
X89938095Y-65350342D02*
X89938095Y-65255104D01*
X89938095Y-65255104D02*
X89890476Y-65159866D01*
X89890476Y-65159866D02*
X89842857Y-65112247D01*
X89842857Y-65112247D02*
X89747619Y-65064628D01*
X89747619Y-65064628D02*
X89557143Y-65017009D01*
X89557143Y-65017009D02*
X89461905Y-64969390D01*
X89461905Y-64969390D02*
X89414286Y-64921771D01*
X89414286Y-64921771D02*
X89366667Y-64826533D01*
X89366667Y-64826533D02*
X89366667Y-64731295D01*
X89366667Y-64731295D02*
X89414286Y-64636057D01*
X89414286Y-64636057D02*
X89461905Y-64588438D01*
X89461905Y-64588438D02*
X89557143Y-64540819D01*
X89557143Y-64540819D02*
X89795238Y-64540819D01*
X89795238Y-64540819D02*
X89938095Y-64588438D01*
X90271429Y-64540819D02*
X90509524Y-65540819D01*
X90509524Y-65540819D02*
X90700000Y-64826533D01*
X90700000Y-64826533D02*
X90890476Y-65540819D01*
X90890476Y-65540819D02*
X91128572Y-64540819D01*
X92033333Y-65540819D02*
X91461905Y-65540819D01*
X91747619Y-65540819D02*
X91747619Y-64540819D01*
X91747619Y-64540819D02*
X91652381Y-64683676D01*
X91652381Y-64683676D02*
X91557143Y-64778914D01*
X91557143Y-64778914D02*
X91461905Y-64826533D01*
D11*
%TO.C,D2*%
X99593750Y-43243750D02*
X99593750Y-47243750D01*
X99593750Y-43243750D02*
X105193750Y-43243750D01*
X99593750Y-47243750D02*
X104593750Y-47243750D01*
X105193750Y-46643750D02*
X104593750Y-47243750D01*
X105193750Y-46643750D02*
X105193750Y-43243750D01*
%TO.C,SW6*%
X121765000Y-85025000D02*
X135735000Y-85025000D01*
X121765000Y-98995000D02*
X121765000Y-85025000D01*
X135735000Y-85025000D02*
X135735000Y-98995000D01*
X135735000Y-98995000D02*
X121765000Y-98995000D01*
%TO.C,SW2*%
X102765000Y-65975000D02*
X116735000Y-65975000D01*
X102765000Y-79945000D02*
X102765000Y-65975000D01*
X116735000Y-65975000D02*
X116735000Y-79945000D01*
X116735000Y-79945000D02*
X102765000Y-79945000D01*
%TO.C,U2*%
X92990000Y-59800000D02*
X94370000Y-59800000D01*
X94370000Y-58420000D02*
X94370000Y-59800000D01*
X91490000Y-60610000D02*
X129490000Y-60610000D01*
X129490000Y-48610000D01*
X91490000Y-48610000D01*
X91490000Y-60610000D01*
%TO.C,D1*%
X113881250Y-43243750D02*
X113881250Y-47243750D01*
X113881250Y-43243750D02*
X119481250Y-43243750D01*
X113881250Y-47243750D02*
X118881250Y-47243750D01*
X119481250Y-46643750D02*
X118881250Y-47243750D01*
X119481250Y-46643750D02*
X119481250Y-43243750D01*
%TO.C,SW5*%
X102715000Y-85015000D02*
X116685000Y-85015000D01*
X102715000Y-98985000D02*
X102715000Y-85015000D01*
X116685000Y-85015000D02*
X116685000Y-98985000D01*
X116685000Y-98985000D02*
X102715000Y-98985000D01*
%TO.C,SW3*%
X121765000Y-65965000D02*
X135735000Y-65965000D01*
X121765000Y-79935000D02*
X121765000Y-65965000D01*
X135735000Y-65965000D02*
X135735000Y-79935000D01*
X135735000Y-79935000D02*
X121765000Y-79935000D01*
D12*
%TO.C,logo*%
G36*
X81320289Y-51740182D02*
G01*
X81367602Y-51791186D01*
X81392891Y-51835576D01*
X81396119Y-51873791D01*
X81373411Y-51923777D01*
X81322145Y-52001643D01*
X81207623Y-52133864D01*
X81059674Y-52254031D01*
X80896929Y-52349583D01*
X80738014Y-52407962D01*
X80711199Y-52413563D01*
X80546908Y-52435456D01*
X80363271Y-52447471D01*
X80179013Y-52449449D01*
X80012858Y-52441230D01*
X79883531Y-52422656D01*
X79875101Y-52420660D01*
X79727085Y-52370093D01*
X79590239Y-52297773D01*
X79471283Y-52210779D01*
X79376934Y-52116190D01*
X79313912Y-52021084D01*
X79288935Y-51932539D01*
X79308721Y-51857636D01*
X79323633Y-51839634D01*
X79390789Y-51806775D01*
X79464947Y-51828101D01*
X79509272Y-51866872D01*
X79560213Y-51907844D01*
X79647947Y-51963129D01*
X79756464Y-52022904D01*
X79796799Y-52043270D01*
X80029028Y-52157594D01*
X80333828Y-52144981D01*
X80533111Y-52130587D01*
X80689896Y-52102340D01*
X80819152Y-52054641D01*
X80935847Y-51981891D01*
X81054952Y-51878491D01*
X81060384Y-51873245D01*
X81143508Y-51798594D01*
X81216437Y-51743518D01*
X81265312Y-51718294D01*
X81270172Y-51717714D01*
X81320289Y-51740182D01*
G37*
G36*
X84996987Y-46648911D02*
G01*
X85098499Y-46683318D01*
X85193350Y-46763259D01*
X85254984Y-46880704D01*
X85278314Y-47022374D01*
X85269115Y-47128931D01*
X85226184Y-47275619D01*
X85154115Y-47385756D01*
X85042843Y-47476861D01*
X84938313Y-47530368D01*
X84826249Y-47552082D01*
X84686241Y-47545323D01*
X84651234Y-47540575D01*
X84531867Y-47512406D01*
X84453115Y-47462891D01*
X84407539Y-47382035D01*
X84387699Y-47259841D01*
X84385128Y-47183008D01*
X84387796Y-47130860D01*
X84601028Y-47130860D01*
X84604850Y-47215470D01*
X84614526Y-47273776D01*
X84620380Y-47286019D01*
X84670273Y-47303206D01*
X84752332Y-47303573D01*
X84843739Y-47288939D01*
X84919726Y-47262146D01*
X85000649Y-47196029D01*
X85029119Y-47106382D01*
X85019776Y-47031302D01*
X84975481Y-46950834D01*
X84890302Y-46907904D01*
X84801165Y-46898971D01*
X84697241Y-46918169D01*
X84632190Y-46977944D01*
X84603188Y-47081566D01*
X84601028Y-47130860D01*
X84387796Y-47130860D01*
X84394067Y-47008275D01*
X84427219Y-46877263D01*
X84488936Y-46779137D01*
X84575987Y-46707768D01*
X84700929Y-46656775D01*
X84849629Y-46636764D01*
X84996987Y-46648911D01*
G37*
G36*
X79064460Y-48134846D02*
G01*
X79156740Y-48165252D01*
X79258866Y-48214765D01*
X79353263Y-48274592D01*
X79422361Y-48335940D01*
X79432586Y-48348999D01*
X79476911Y-48426798D01*
X79530778Y-48543570D01*
X79587403Y-48682575D01*
X79640004Y-48827073D01*
X79681797Y-48960321D01*
X79684995Y-48971919D01*
X79707507Y-49083562D01*
X79728676Y-49241814D01*
X79747969Y-49435696D01*
X79764856Y-49654225D01*
X79778805Y-49886422D01*
X79789283Y-50121306D01*
X79795758Y-50347897D01*
X79797698Y-50555214D01*
X79794573Y-50732277D01*
X79785849Y-50868105D01*
X79779224Y-50917110D01*
X79715813Y-51148095D01*
X79614906Y-51344088D01*
X79534935Y-51444579D01*
X79430049Y-51522919D01*
X79313602Y-51545999D01*
X79182996Y-51513908D01*
X79084025Y-51460137D01*
X78966539Y-51378015D01*
X78872424Y-51294584D01*
X78796537Y-51200483D01*
X78733735Y-51086348D01*
X78678872Y-50942815D01*
X78626806Y-50760521D01*
X78572392Y-50530104D01*
X78571910Y-50527934D01*
X78544630Y-50397909D01*
X78524599Y-50280396D01*
X78510604Y-50161676D01*
X78501435Y-50028025D01*
X78495879Y-49865723D01*
X78492724Y-49661048D01*
X78492400Y-49627657D01*
X78492778Y-49339195D01*
X78500380Y-49100495D01*
X78515211Y-48915412D01*
X78685424Y-48915412D01*
X78699580Y-49189417D01*
X78701962Y-49213140D01*
X78722364Y-49367724D01*
X78751660Y-49491647D01*
X78797647Y-49612294D01*
X78842334Y-49706248D01*
X78906475Y-49826837D01*
X78962037Y-49903746D01*
X79022254Y-49947099D01*
X79100363Y-49967019D01*
X79191240Y-49973106D01*
X79278524Y-49958575D01*
X79346487Y-49924079D01*
X79385451Y-49875536D01*
X79420064Y-49791977D01*
X79454088Y-49663524D01*
X79465319Y-49612021D01*
X79506333Y-49368895D01*
X79517931Y-49159273D01*
X79500369Y-48966759D01*
X79477117Y-48857241D01*
X79437810Y-48717865D01*
X79394562Y-48607922D01*
X79334954Y-48499454D01*
X79281035Y-48415714D01*
X79227940Y-48342240D01*
X79181475Y-48305795D01*
X79118621Y-48293495D01*
X79060650Y-48292342D01*
X78926169Y-48317281D01*
X78821397Y-48392082D01*
X78746342Y-48516720D01*
X78701015Y-48691171D01*
X78685424Y-48915412D01*
X78515211Y-48915412D01*
X78516157Y-48903601D01*
X78541064Y-48740558D01*
X78576053Y-48603409D01*
X78622078Y-48484199D01*
X78631864Y-48463505D01*
X78734477Y-48310083D01*
X78870566Y-48193300D01*
X78999598Y-48132341D01*
X79064460Y-48134846D01*
G37*
G36*
X81020721Y-48016001D02*
G01*
X81094707Y-48036353D01*
X81223957Y-48104618D01*
X81335935Y-48224003D01*
X81426300Y-48389030D01*
X81468446Y-48508041D01*
X81509342Y-48647594D01*
X81540138Y-48756844D01*
X81564730Y-48852182D01*
X81587016Y-48950003D01*
X81610893Y-49066699D01*
X81640259Y-49218663D01*
X81651813Y-49279314D01*
X81705303Y-49598695D01*
X81742758Y-49905849D01*
X81763355Y-50189851D01*
X81766272Y-50439776D01*
X81753224Y-50625553D01*
X81721853Y-50796837D01*
X81674265Y-50957692D01*
X81615663Y-51095180D01*
X81551249Y-51196369D01*
X81507013Y-51237693D01*
X81398778Y-51277350D01*
X81269724Y-51278320D01*
X81140989Y-51242042D01*
X81080795Y-51208667D01*
X81015442Y-51157991D01*
X80976872Y-51115969D01*
X80972456Y-51104291D01*
X80956855Y-51061102D01*
X80919066Y-50998582D01*
X80916658Y-50995172D01*
X80878162Y-50928516D01*
X80830518Y-50828564D01*
X80783933Y-50716755D01*
X80783226Y-50714920D01*
X80734820Y-50590228D01*
X80685151Y-50464169D01*
X80648374Y-50372452D01*
X80585120Y-50178750D01*
X80532056Y-49937966D01*
X80490646Y-49660415D01*
X80462356Y-49356412D01*
X80448651Y-49036273D01*
X80447707Y-48960000D01*
X80447728Y-48785828D01*
X80609922Y-48785828D01*
X80611333Y-48926990D01*
X80617928Y-49030337D01*
X80633780Y-49116102D01*
X80662964Y-49204516D01*
X80709553Y-49315811D01*
X80722615Y-49345538D01*
X80779647Y-49463818D01*
X80838093Y-49566678D01*
X80888745Y-49638591D01*
X80907636Y-49657596D01*
X80992871Y-49699186D01*
X81095660Y-49715130D01*
X81193661Y-49705034D01*
X81264531Y-49668505D01*
X81268784Y-49663942D01*
X81304790Y-49607116D01*
X81346099Y-49520616D01*
X81364786Y-49474018D01*
X81386860Y-49405456D01*
X81400294Y-49333635D01*
X81405989Y-49244806D01*
X81404849Y-49125222D01*
X81398067Y-48966884D01*
X81388229Y-48803105D01*
X81376297Y-48683005D01*
X81359695Y-48592210D01*
X81335848Y-48516344D01*
X81304770Y-48446303D01*
X81224643Y-48311365D01*
X81135292Y-48224558D01*
X81025048Y-48176007D01*
X80972487Y-48165086D01*
X80871141Y-48158534D01*
X80796893Y-48183046D01*
X80735150Y-48247426D01*
X80681240Y-48340778D01*
X80647976Y-48412915D01*
X80626848Y-48482805D01*
X80615237Y-48566792D01*
X80610523Y-48681223D01*
X80609922Y-48785828D01*
X80447728Y-48785828D01*
X80447729Y-48773902D01*
X80451892Y-48633297D01*
X80462182Y-48525658D01*
X80480584Y-48438460D01*
X80509084Y-48359177D01*
X80549668Y-48275285D01*
X80559097Y-48257438D01*
X80631955Y-48150202D01*
X80724256Y-48078835D01*
X80758287Y-48061496D01*
X80858050Y-48019532D01*
X80936116Y-48005070D01*
X81020721Y-48016001D01*
G37*
G36*
X85995450Y-45500021D02*
G01*
X86085642Y-45541538D01*
X86225854Y-45639545D01*
X86354870Y-45758107D01*
X86454671Y-45879822D01*
X86481427Y-45923724D01*
X86516624Y-46035827D01*
X86529717Y-46199638D01*
X86529800Y-46216800D01*
X86511653Y-46407195D01*
X86453488Y-46564992D01*
X86349415Y-46704557D01*
X86316372Y-46737488D01*
X86260468Y-46799453D01*
X86229094Y-46851410D01*
X86226628Y-46863151D01*
X86245952Y-46903777D01*
X86296184Y-46968649D01*
X86354357Y-47031284D01*
X86502801Y-47208462D01*
X86593821Y-47384112D01*
X86627603Y-47556061D01*
X86604329Y-47722136D01*
X86524187Y-47880161D01*
X86387359Y-48027965D01*
X86261673Y-48121758D01*
X86037568Y-48253025D01*
X85836533Y-48337516D01*
X85651245Y-48377923D01*
X85552369Y-48382312D01*
X85457641Y-48382351D01*
X85402101Y-48393006D01*
X85366902Y-48423249D01*
X85333199Y-48482054D01*
X85330056Y-48488157D01*
X85253924Y-48598732D01*
X85147069Y-48705975D01*
X85024128Y-48799166D01*
X84899739Y-48867585D01*
X84788540Y-48900512D01*
X84765049Y-48901942D01*
X84717111Y-48905767D01*
X84697765Y-48927834D01*
X84699236Y-48984037D01*
X84704705Y-49025314D01*
X84720623Y-49126167D01*
X84741343Y-49188058D01*
X84779469Y-49229556D01*
X84847607Y-49269231D01*
X84882202Y-49286790D01*
X85168776Y-49456073D01*
X85411110Y-49650983D01*
X85606931Y-49867862D01*
X85753966Y-50103052D01*
X85849941Y-50352894D01*
X85892583Y-50613728D01*
X85879618Y-50881898D01*
X85878357Y-50889949D01*
X85828176Y-51108849D01*
X85750746Y-51329023D01*
X85654462Y-51529627D01*
X85564956Y-51668022D01*
X85492566Y-51769229D01*
X85426029Y-51872843D01*
X85390793Y-51935428D01*
X85342634Y-52006948D01*
X85263547Y-52099865D01*
X85167304Y-52198530D01*
X85122520Y-52240228D01*
X85006014Y-52345473D01*
X84881910Y-52458151D01*
X84772460Y-52558046D01*
X84747098Y-52581314D01*
X84665816Y-52653586D01*
X84600357Y-52707319D01*
X84562633Y-52732843D01*
X84559342Y-52733714D01*
X84522422Y-52748852D01*
X84463211Y-52785480D01*
X84460366Y-52787454D01*
X84384402Y-52831382D01*
X84286581Y-52876920D01*
X84252685Y-52890432D01*
X84126264Y-52946321D01*
X84045871Y-53006360D01*
X83999993Y-53082420D01*
X83978935Y-53172683D01*
X83959957Y-53306852D01*
X84409142Y-53572724D01*
X84725841Y-53774099D01*
X84994054Y-53977501D01*
X85222840Y-54192618D01*
X85421263Y-54429138D01*
X85598384Y-54696750D01*
X85763265Y-55005142D01*
X85778608Y-55036886D01*
X85890837Y-55295870D01*
X85962330Y-55527993D01*
X85993794Y-55747056D01*
X85985933Y-55966859D01*
X85939453Y-56201203D01*
X85855060Y-56463887D01*
X85851967Y-56472301D01*
X85773121Y-56655774D01*
X85675858Y-56818847D01*
X85548578Y-56978679D01*
X85416041Y-57117028D01*
X85207369Y-57299928D01*
X84994381Y-57437145D01*
X84759037Y-57539410D01*
X84644571Y-57575862D01*
X84546206Y-57603470D01*
X84457950Y-57625213D01*
X84369800Y-57642287D01*
X84271756Y-57655885D01*
X84153815Y-57667203D01*
X84005975Y-57677434D01*
X83818235Y-57687774D01*
X83629828Y-57697059D01*
X83432240Y-57706397D01*
X83282714Y-57712144D01*
X83171315Y-57713319D01*
X83088106Y-57708945D01*
X83023152Y-57698042D01*
X82966516Y-57679630D01*
X82908264Y-57652731D01*
X82844799Y-57619698D01*
X82792021Y-57599948D01*
X82698380Y-57572180D01*
X82579700Y-57540920D01*
X82510971Y-57524228D01*
X82290327Y-57469118D01*
X82112159Y-57416263D01*
X81961438Y-57359943D01*
X81823132Y-57294434D01*
X81682211Y-57214015D01*
X81659681Y-57200166D01*
X81459776Y-57069125D01*
X81302396Y-56947434D01*
X81175756Y-56823922D01*
X81068072Y-56687418D01*
X80990084Y-56565464D01*
X80848054Y-56325964D01*
X80460491Y-56339108D01*
X80316414Y-56345059D01*
X80194210Y-56352118D01*
X80105086Y-56359488D01*
X80060247Y-56366372D01*
X80057394Y-56367786D01*
X80043139Y-56401074D01*
X80018409Y-56476617D01*
X79987630Y-56580556D01*
X79974665Y-56626802D01*
X79914881Y-56820741D01*
X79851366Y-56973028D01*
X79775593Y-57099870D01*
X79679033Y-57217473D01*
X79645233Y-57252870D01*
X79456749Y-57429308D01*
X79258026Y-57581815D01*
X79040612Y-57714619D01*
X78796058Y-57831946D01*
X78515910Y-57938021D01*
X78191718Y-58037072D01*
X77950286Y-58100458D01*
X77730606Y-58152534D01*
X77537981Y-58191078D01*
X77355977Y-58217967D01*
X77168158Y-58235076D01*
X76958090Y-58244281D01*
X76709338Y-58247457D01*
X76661714Y-58247533D01*
X76473787Y-58246826D01*
X76331714Y-58243753D01*
X76223304Y-58237130D01*
X76136365Y-58225768D01*
X76058706Y-58208483D01*
X75978135Y-58184087D01*
X75965028Y-58179735D01*
X75845437Y-58142693D01*
X75693690Y-58099883D01*
X75534314Y-58058095D01*
X75457028Y-58039132D01*
X75313613Y-58001842D01*
X75175291Y-57960491D01*
X75061881Y-57921250D01*
X75013470Y-57901020D01*
X74808091Y-57772451D01*
X74632528Y-57596435D01*
X74489591Y-57376915D01*
X74382086Y-57117834D01*
X74337070Y-56950970D01*
X74312806Y-56828739D01*
X74302187Y-56727330D01*
X74304439Y-56622019D01*
X74318787Y-56488081D01*
X74321850Y-56464637D01*
X74398779Y-56099550D01*
X74528838Y-55750054D01*
X74708064Y-55423410D01*
X74932499Y-55126881D01*
X75188255Y-54876066D01*
X75269865Y-54804973D01*
X75331934Y-54746830D01*
X75362705Y-54712731D01*
X75363912Y-54710326D01*
X75350728Y-54681736D01*
X75287905Y-54656221D01*
X75172141Y-54632717D01*
X75084756Y-54620267D01*
X74980319Y-54601593D01*
X74894553Y-54576964D01*
X74852527Y-54555993D01*
X74796861Y-54520461D01*
X74712803Y-54477952D01*
X74673256Y-54460490D01*
X74435083Y-54340408D01*
X74225572Y-54194802D01*
X74054055Y-54031421D01*
X73929865Y-53858010D01*
X73916019Y-53831857D01*
X73857088Y-53690399D01*
X73800349Y-53509760D01*
X73750822Y-53308748D01*
X73713525Y-53106169D01*
X73704306Y-53038514D01*
X73699525Y-52870730D01*
X73702412Y-52840055D01*
X73979562Y-52840055D01*
X73983158Y-53016333D01*
X74014159Y-53199752D01*
X74039345Y-53286877D01*
X74097925Y-53439569D01*
X74167310Y-53569545D01*
X74259613Y-53696141D01*
X74381190Y-53832613D01*
X74452474Y-53910650D01*
X74504692Y-53972781D01*
X74527777Y-54006943D01*
X74528114Y-54008697D01*
X74551862Y-54036101D01*
X74610377Y-54074853D01*
X74684560Y-54114635D01*
X74755314Y-54145130D01*
X74800974Y-54156114D01*
X74866017Y-54170313D01*
X74898622Y-54185278D01*
X74952247Y-54206673D01*
X75050017Y-54237016D01*
X75179323Y-54273019D01*
X75327557Y-54311394D01*
X75482111Y-54348851D01*
X75630377Y-54382101D01*
X75732799Y-54402859D01*
X75888901Y-54433407D01*
X76011843Y-54462386D01*
X76112114Y-54496177D01*
X76200204Y-54541156D01*
X76286601Y-54603701D01*
X76381795Y-54690190D01*
X76496275Y-54807002D01*
X76628153Y-54947273D01*
X76783232Y-55105637D01*
X76919542Y-55229647D01*
X77030839Y-55313768D01*
X77063582Y-55333222D01*
X77167314Y-55391413D01*
X77291648Y-55464770D01*
X77401942Y-55532596D01*
X77541708Y-55617756D01*
X77668135Y-55686434D01*
X77810351Y-55754094D01*
X77866399Y-55779138D01*
X77944286Y-55817626D01*
X78026056Y-55863231D01*
X78150900Y-55920484D01*
X78323028Y-55974121D01*
X78531680Y-56021876D01*
X78766099Y-56061483D01*
X79015527Y-56090678D01*
X79158171Y-56101659D01*
X79324150Y-56110865D01*
X79453443Y-56114379D01*
X79567192Y-56111652D01*
X79686539Y-56102134D01*
X79832627Y-56085274D01*
X79844416Y-56083802D01*
X79916801Y-56077624D01*
X80030228Y-56071221D01*
X80167690Y-56065448D01*
X80279845Y-56061953D01*
X80418416Y-56055566D01*
X80540414Y-56044889D01*
X80631193Y-56031506D01*
X80672400Y-56019446D01*
X80728524Y-55997658D01*
X80824206Y-55968695D01*
X80942248Y-55937611D01*
X80989990Y-55926153D01*
X81120140Y-55890350D01*
X81272173Y-55840010D01*
X81433312Y-55780325D01*
X81590778Y-55716490D01*
X81731794Y-55653697D01*
X81843582Y-55597141D01*
X81872386Y-55578514D01*
X85592583Y-55578514D01*
X85597145Y-55619724D01*
X85607224Y-55614800D01*
X85611058Y-55555368D01*
X85607224Y-55542228D01*
X85596629Y-55538581D01*
X85592583Y-55578514D01*
X81872386Y-55578514D01*
X81913364Y-55552014D01*
X81915885Y-55549829D01*
X81983323Y-55500175D01*
X82065522Y-55451946D01*
X82067484Y-55450950D01*
X82166003Y-55396499D01*
X82864370Y-55396499D01*
X82885236Y-55404342D01*
X82916644Y-55381143D01*
X82928779Y-55358425D01*
X82945002Y-55304104D01*
X82931188Y-55296893D01*
X82902856Y-55317257D01*
X82865430Y-55362535D01*
X82864370Y-55396499D01*
X82166003Y-55396499D01*
X82169623Y-55394498D01*
X82266593Y-55328756D01*
X82369139Y-55244957D01*
X82488008Y-55134329D01*
X82631094Y-54991024D01*
X82784094Y-54830827D01*
X82816117Y-54795551D01*
X85188657Y-54795551D01*
X85198521Y-54827667D01*
X85220782Y-54849646D01*
X85233481Y-54827784D01*
X85233698Y-54782466D01*
X85228166Y-54773576D01*
X85200248Y-54766812D01*
X85188657Y-54795551D01*
X82816117Y-54795551D01*
X82916408Y-54685074D01*
X83023373Y-54559375D01*
X83100329Y-54459338D01*
X83142613Y-54390572D01*
X83149413Y-54367474D01*
X83162116Y-54329588D01*
X83196731Y-54251089D01*
X83248238Y-54142796D01*
X83311617Y-54015530D01*
X83323771Y-53991692D01*
X83388751Y-53861999D01*
X83442718Y-53749150D01*
X83480650Y-53664029D01*
X83497528Y-53617522D01*
X83497942Y-53614145D01*
X83509413Y-53570479D01*
X83539512Y-53491432D01*
X83581769Y-53393974D01*
X83582545Y-53392277D01*
X83630516Y-53272689D01*
X83669423Y-53149169D01*
X83687915Y-53064978D01*
X83715316Y-52930071D01*
X83759172Y-52833487D01*
X83831641Y-52759048D01*
X83944879Y-52690574D01*
X83983909Y-52671065D01*
X84167410Y-52567213D01*
X84361162Y-52432082D01*
X84557781Y-52273239D01*
X84749883Y-52098254D01*
X84930087Y-51914694D01*
X85091008Y-51730127D01*
X85225263Y-51552122D01*
X85325469Y-51388247D01*
X85384243Y-51246070D01*
X85387908Y-51231887D01*
X85415266Y-51136651D01*
X85445696Y-51057251D01*
X85457391Y-51034813D01*
X85487472Y-50954915D01*
X85508774Y-50839351D01*
X85519295Y-50710112D01*
X85517032Y-50589192D01*
X85504830Y-50513797D01*
X85452536Y-50382039D01*
X85366696Y-50228985D01*
X85258044Y-50070892D01*
X85137312Y-49924017D01*
X85068323Y-49852628D01*
X84983787Y-49775417D01*
X84911497Y-49717140D01*
X84863839Y-49687544D01*
X84856176Y-49685714D01*
X84804352Y-49670044D01*
X84752409Y-49640371D01*
X84715550Y-49616352D01*
X84691387Y-49614078D01*
X84673192Y-49642716D01*
X84654238Y-49711433D01*
X84633917Y-49801828D01*
X84580275Y-50000789D01*
X84507858Y-50207174D01*
X84422155Y-50409689D01*
X84328655Y-50597043D01*
X84232848Y-50757943D01*
X84140223Y-50881097D01*
X84081856Y-50937520D01*
X83983008Y-50984257D01*
X83879090Y-50983206D01*
X83789221Y-50934807D01*
X83784960Y-50930674D01*
X83739298Y-50848039D01*
X83746068Y-50748065D01*
X83804195Y-50635937D01*
X83860232Y-50568212D01*
X83941465Y-50474559D01*
X84023620Y-50368285D01*
X84098123Y-50261959D01*
X84156397Y-50168153D01*
X84189870Y-50099434D01*
X84194628Y-50078036D01*
X84207256Y-50025065D01*
X84239033Y-49946382D01*
X84255165Y-49913082D01*
X84295178Y-49809630D01*
X84324809Y-49688541D01*
X84331336Y-49642937D01*
X84346970Y-49491453D01*
X84190971Y-49472722D01*
X84069769Y-49462007D01*
X83930547Y-49455107D01*
X83854563Y-49453738D01*
X83750361Y-49456715D01*
X83688676Y-49468777D01*
X83654178Y-49494074D01*
X83643441Y-49510877D01*
X83591877Y-49572686D01*
X83555422Y-49598937D01*
X83518437Y-49610339D01*
X83483341Y-49593798D01*
X83437833Y-49540679D01*
X83403688Y-49492424D01*
X83330916Y-49392256D01*
X83252706Y-49292734D01*
X83218186Y-49251964D01*
X83154845Y-49171186D01*
X83081265Y-49064461D01*
X83022665Y-48970349D01*
X82961637Y-48880891D01*
X82870511Y-48765543D01*
X82761133Y-48638560D01*
X82645345Y-48514195D01*
X82633826Y-48502407D01*
X82521200Y-48386922D01*
X82415124Y-48276731D01*
X82326395Y-48183144D01*
X82265809Y-48117470D01*
X82258783Y-48109551D01*
X82184874Y-48038181D01*
X82084717Y-47957373D01*
X81998464Y-47896934D01*
X81892801Y-47824514D01*
X81790778Y-47747565D01*
X81727199Y-47694018D01*
X81633064Y-47626822D01*
X81524207Y-47575073D01*
X81495830Y-47566194D01*
X81403265Y-47537974D01*
X81282384Y-47496132D01*
X81158439Y-47449431D01*
X81151539Y-47446699D01*
X81025954Y-47403747D01*
X80868452Y-47359768D01*
X80704637Y-47321606D01*
X80628165Y-47306810D01*
X80480151Y-47278606D01*
X80334345Y-47247412D01*
X80212041Y-47217931D01*
X80159656Y-47203286D01*
X80002459Y-47157960D01*
X79860056Y-47124532D01*
X79721480Y-47102384D01*
X79575761Y-47090900D01*
X79411931Y-47089462D01*
X79219023Y-47097453D01*
X78986067Y-47114256D01*
X78824342Y-47128148D01*
X78604951Y-47149452D01*
X78431423Y-47171114D01*
X78291606Y-47195670D01*
X78173348Y-47225659D01*
X78064495Y-47263617D01*
X77960665Y-47308473D01*
X77863757Y-47350889D01*
X77784778Y-47381080D01*
X77741146Y-47392457D01*
X77682317Y-47407556D01*
X77589228Y-47448221D01*
X77475716Y-47507500D01*
X77355617Y-47578442D01*
X77301939Y-47613098D01*
X77189424Y-47687927D01*
X77067849Y-47768655D01*
X77012091Y-47805629D01*
X76845446Y-47932338D01*
X76661885Y-48099727D01*
X76470972Y-48296810D01*
X76282271Y-48512599D01*
X76105344Y-48736108D01*
X75949757Y-48956349D01*
X75825072Y-49162337D01*
X75815343Y-49180461D01*
X75749209Y-49299898D01*
X75678513Y-49419367D01*
X75619328Y-49511843D01*
X75547041Y-49628877D01*
X75482841Y-49761109D01*
X75417808Y-49927383D01*
X75403087Y-49968742D01*
X75368082Y-50068380D01*
X75336797Y-50157428D01*
X75302694Y-50254156D01*
X75267550Y-50353371D01*
X75241939Y-50442426D01*
X75214076Y-50573317D01*
X75183069Y-50750861D01*
X75148026Y-50979874D01*
X75135849Y-51064571D01*
X75100920Y-51244477D01*
X75054059Y-51384360D01*
X74997928Y-51477815D01*
X74948846Y-51514583D01*
X74896007Y-51543859D01*
X74811183Y-51600532D01*
X74707161Y-51675037D01*
X74596727Y-51757808D01*
X74492667Y-51839280D01*
X74407767Y-51909886D01*
X74357854Y-51956721D01*
X74254629Y-52073665D01*
X74183944Y-52171888D01*
X74134293Y-52270492D01*
X74094170Y-52388576D01*
X74090898Y-52399885D01*
X74057469Y-52515316D01*
X74026304Y-52620885D01*
X74004616Y-52692232D01*
X73979562Y-52840055D01*
X73702412Y-52840055D01*
X73718191Y-52672391D01*
X73756512Y-52464214D01*
X73810696Y-52266915D01*
X73875267Y-52104618D01*
X73991995Y-51919198D01*
X74150661Y-51741217D01*
X74335561Y-51585038D01*
X74530991Y-51465027D01*
X74615199Y-51427793D01*
X74706503Y-51387964D01*
X74759441Y-51344966D01*
X74787266Y-51280794D01*
X74803229Y-51177440D01*
X74803901Y-51171397D01*
X74876322Y-50672019D01*
X74978413Y-50220112D01*
X75110962Y-49812780D01*
X75272635Y-49451223D01*
X75392878Y-49234419D01*
X75524139Y-49030607D01*
X75675414Y-48827674D01*
X75855699Y-48613506D01*
X76060420Y-48390310D01*
X76380525Y-48064422D01*
X76678509Y-47787722D01*
X76958064Y-47557393D01*
X77222879Y-47370618D01*
X77476646Y-47224580D01*
X77723056Y-47116463D01*
X77735771Y-47111814D01*
X77864534Y-47072465D01*
X78039728Y-47029611D01*
X78250011Y-46985494D01*
X78484040Y-46942353D01*
X78730475Y-46902430D01*
X78954971Y-46870913D01*
X79200984Y-46844257D01*
X79426088Y-46832513D01*
X79641986Y-46837018D01*
X79860383Y-46859106D01*
X80092983Y-46900114D01*
X80351491Y-46961376D01*
X80647609Y-47044229D01*
X80754742Y-47076283D01*
X81130325Y-47195411D01*
X81455937Y-47311224D01*
X81739202Y-47427736D01*
X81987741Y-47548963D01*
X82209177Y-47678920D01*
X82411133Y-47821622D01*
X82601231Y-47981083D01*
X82757714Y-48131312D01*
X82958201Y-48338274D01*
X83121439Y-48516507D01*
X83254633Y-48674623D01*
X83364989Y-48821237D01*
X83459713Y-48964962D01*
X83472075Y-48985240D01*
X83541653Y-49095935D01*
X83594579Y-49162740D01*
X83641823Y-49192833D01*
X83694355Y-49193389D01*
X83759199Y-49173078D01*
X83816561Y-49161256D01*
X83914526Y-49150188D01*
X84035644Y-49141181D01*
X84162462Y-49135544D01*
X84273625Y-49134520D01*
X84335805Y-49134929D01*
X84374722Y-49126169D01*
X84399129Y-49096755D01*
X84417778Y-49035207D01*
X84439419Y-48930043D01*
X84442947Y-48912378D01*
X84432624Y-48850667D01*
X84376528Y-48798566D01*
X84280052Y-48726091D01*
X84178922Y-48635360D01*
X84087109Y-48540499D01*
X84018587Y-48455635D01*
X83991953Y-48409724D01*
X83962693Y-48358086D01*
X83917317Y-48328327D01*
X83837361Y-48310036D01*
X83807461Y-48305715D01*
X83581246Y-48254842D01*
X83394126Y-48171063D01*
X83249557Y-48057714D01*
X83150998Y-47918130D01*
X83101906Y-47755647D01*
X83100029Y-47653714D01*
X83458558Y-47653714D01*
X83464586Y-47772927D01*
X83520537Y-47882890D01*
X83618474Y-47969542D01*
X83645076Y-47984185D01*
X83732605Y-48019376D01*
X83809909Y-48025118D01*
X83893355Y-47998479D01*
X83999308Y-47936524D01*
X84031632Y-47914902D01*
X84136961Y-47846850D01*
X84211025Y-47810855D01*
X84268093Y-47802959D01*
X84322437Y-47819204D01*
X84341679Y-47828907D01*
X84386663Y-47882324D01*
X84395446Y-47962964D01*
X84368156Y-48052766D01*
X84339771Y-48097063D01*
X84290335Y-48197972D01*
X84297679Y-48300305D01*
X84360644Y-48401762D01*
X84478073Y-48500041D01*
X84569905Y-48554272D01*
X84676939Y-48599182D01*
X84766173Y-48602636D01*
X84858977Y-48562887D01*
X84913522Y-48526175D01*
X84986553Y-48464575D01*
X85038062Y-48405190D01*
X85050114Y-48382128D01*
X85049095Y-48298748D01*
X85003806Y-48219118D01*
X84949006Y-48176033D01*
X84895624Y-48129072D01*
X84847122Y-48058858D01*
X84846908Y-48058445D01*
X84818972Y-47992616D01*
X84823272Y-47941768D01*
X84851409Y-47887600D01*
X84922715Y-47810572D01*
X85012524Y-47788318D01*
X85119608Y-47821011D01*
X85159205Y-47844328D01*
X85229609Y-47887310D01*
X85279689Y-47912519D01*
X85289834Y-47915253D01*
X85323107Y-47932156D01*
X85385659Y-47975514D01*
X85441885Y-48018594D01*
X85542971Y-48086928D01*
X85615665Y-48107965D01*
X85630571Y-48105795D01*
X85702496Y-48092159D01*
X85735972Y-48089539D01*
X85777174Y-48072660D01*
X85852352Y-48027329D01*
X85949844Y-47960978D01*
X86032151Y-47900718D01*
X86147347Y-47811391D01*
X86223327Y-47744795D01*
X86269023Y-47691225D01*
X86293372Y-47640974D01*
X86301500Y-47608115D01*
X86306749Y-47520613D01*
X86283546Y-47437120D01*
X86226039Y-47345944D01*
X86128374Y-47235391D01*
X86100764Y-47207153D01*
X85960386Y-47065393D01*
X85793560Y-47082830D01*
X85674631Y-47087896D01*
X85601846Y-47069879D01*
X85566388Y-47024398D01*
X85558971Y-46966327D01*
X85578577Y-46909693D01*
X85643600Y-46857907D01*
X85672704Y-46842128D01*
X85845795Y-46742765D01*
X85995356Y-46635469D01*
X86107247Y-46530722D01*
X86130105Y-46503008D01*
X86209440Y-46359375D01*
X86235881Y-46214827D01*
X86213981Y-46076869D01*
X86148288Y-45953008D01*
X86043355Y-45850748D01*
X85903731Y-45777594D01*
X85733966Y-45741053D01*
X85666462Y-45738306D01*
X85505119Y-45758907D01*
X85372265Y-45823098D01*
X85259657Y-45936156D01*
X85191009Y-46042628D01*
X85139155Y-46137295D01*
X85098063Y-46215950D01*
X85077159Y-46260342D01*
X85039081Y-46354702D01*
X85008336Y-46407890D01*
X84974934Y-46434148D01*
X84949026Y-46443015D01*
X84896362Y-46440585D01*
X84830293Y-46403075D01*
X84756708Y-46340663D01*
X84652233Y-46258175D01*
X84552352Y-46213751D01*
X84494158Y-46201485D01*
X84320372Y-46196179D01*
X84174545Y-46235481D01*
X84086723Y-46294204D01*
X84024687Y-46371052D01*
X83966033Y-46475058D01*
X83922132Y-46582668D01*
X83904353Y-46670325D01*
X83904342Y-46672031D01*
X83918020Y-46720385D01*
X83953157Y-46796464D01*
X84000907Y-46884952D01*
X84052421Y-46970534D01*
X84098855Y-47037894D01*
X84131361Y-47071716D01*
X84136037Y-47073142D01*
X84168468Y-47098232D01*
X84191358Y-47157916D01*
X84198332Y-47228820D01*
X84190394Y-47272434D01*
X84173049Y-47309105D01*
X84145770Y-47327569D01*
X84093623Y-47331253D01*
X84001676Y-47323582D01*
X83978241Y-47321099D01*
X83797142Y-47322312D01*
X83651712Y-47367628D01*
X83543821Y-47455851D01*
X83475339Y-47585783D01*
X83458558Y-47653714D01*
X83100029Y-47653714D01*
X83099457Y-47622648D01*
X83138241Y-47440953D01*
X83221381Y-47289440D01*
X83353112Y-47162337D01*
X83505199Y-47069815D01*
X83590737Y-47024977D01*
X83650935Y-46990585D01*
X83672114Y-46974774D01*
X83663332Y-46943612D01*
X83641151Y-46877019D01*
X83628571Y-46840914D01*
X83597975Y-46742564D01*
X83588472Y-46663709D01*
X83601019Y-46581546D01*
X83636578Y-46473269D01*
X83645001Y-46450570D01*
X83739196Y-46260585D01*
X83863058Y-46105846D01*
X84009240Y-45992474D01*
X84170396Y-45926592D01*
X84291311Y-45911999D01*
X84465504Y-45928752D01*
X84632615Y-45974764D01*
X84772972Y-46043664D01*
X84828214Y-46085838D01*
X84887708Y-46136438D01*
X84919462Y-46149326D01*
X84936015Y-46128606D01*
X84938273Y-46121861D01*
X84985753Y-45993939D01*
X85046098Y-45864972D01*
X85108825Y-45755807D01*
X85150132Y-45700560D01*
X85285631Y-45589688D01*
X85452934Y-45511646D01*
X85637019Y-45468985D01*
X85822865Y-45464259D01*
X85995450Y-45500021D01*
G37*
D11*
%TO.C,SW4*%
X83715000Y-85015000D02*
X97685000Y-85015000D01*
X83715000Y-98985000D02*
X83715000Y-85015000D01*
X97685000Y-85015000D02*
X97685000Y-98985000D01*
X97685000Y-98985000D02*
X83715000Y-98985000D01*
%TO.C,SW7*%
X131515000Y-49875000D02*
X132115000Y-49875000D01*
X131815000Y-50175000D02*
X131515000Y-49875000D01*
X132115000Y-49875000D02*
X131815000Y-50175000D01*
X133215000Y-48075000D02*
X133215000Y-59875000D01*
X137315000Y-48075000D02*
X133215000Y-48075000D01*
X137315000Y-59875000D02*
X133215000Y-59875000D01*
X138815000Y-53975000D02*
X139815000Y-53975000D01*
X139315000Y-53475000D02*
X139315000Y-54475000D01*
X141315000Y-48075000D02*
X145415000Y-48075000D01*
X145415000Y-48075000D02*
X145415000Y-50475000D01*
X145415000Y-52675000D02*
X145415000Y-55275000D01*
X145415000Y-57475000D02*
X145415000Y-59875000D01*
X145415000Y-59875000D02*
X141315000Y-59875000D01*
X142315000Y-53975000D02*
G75*
G02*
X136315000Y-53975000I-3000000J0D01*
G01*
X136315000Y-53975000D02*
G75*
G02*
X142315000Y-53975000I3000000J0D01*
G01*
%TO.C,SW1*%
X83715000Y-65975000D02*
X97685000Y-65975000D01*
X83715000Y-79945000D02*
X83715000Y-65975000D01*
X97685000Y-65975000D02*
X97685000Y-79945000D01*
X97685000Y-79945000D02*
X83715000Y-79945000D01*
%TD*%
M02*
