%TF.GenerationSoftware,KiCad,Pcbnew,9.0.6*%
%TF.CreationDate,2026-03-06T21:36:24+00:00*%
%TF.ProjectId,kicadproject,6b696361-6470-4726-9f6a-6563742e6b69,rev?*%
%TF.SameCoordinates,Original*%
%TF.FileFunction,Copper,L1,Top*%
%TF.FilePolarity,Positive*%
%FSLAX46Y46*%
G04 Gerber Fmt 4.6, Leading zero omitted, Abs format (unit mm)*
G04 Created by KiCad (PCBNEW 9.0.6) date 2026-03-06 21:36:24*
%MOMM*%
%LPD*%
G01*
G04 APERTURE LIST*
G04 Aperture macros list*
%AMRoundRect*
0 Rectangle with rounded corners*
0 $1 Rounding radius*
0 $2 $3 $4 $5 $6 $7 $8 $9 X,Y pos of 4 corners*
0 Add a 4 corners polygon primitive as box body*
4,1,4,$2,$3,$4,$5,$6,$7,$8,$9,$2,$3,0*
0 Add four circle primitives for the rounded corners*
1,1,$1+$1,$2,$3*
1,1,$1+$1,$4,$5*
1,1,$1+$1,$6,$7*
1,1,$1+$1,$8,$9*
0 Add four rect primitives between the rounded corners*
20,1,$1+$1,$2,$3,$4,$5,0*
20,1,$1+$1,$4,$5,$6,$7,0*
20,1,$1+$1,$6,$7,$8,$9,0*
20,1,$1+$1,$8,$9,$2,$3,0*%
G04 Aperture macros list end*
%TA.AperFunction,SMDPad,CuDef*%
%ADD10R,1.600000X0.850000*%
%TD*%
%TA.AperFunction,ComponentPad*%
%ADD11C,2.200000*%
%TD*%
%TA.AperFunction,ComponentPad*%
%ADD12RoundRect,0.170000X0.680000X-0.680000X0.680000X0.680000X-0.680000X0.680000X-0.680000X-0.680000X0*%
%TD*%
%TA.AperFunction,ComponentPad*%
%ADD13C,1.700000*%
%TD*%
%TA.AperFunction,ComponentPad*%
%ADD14R,2.000000X2.000000*%
%TD*%
%TA.AperFunction,ComponentPad*%
%ADD15C,2.000000*%
%TD*%
%TA.AperFunction,ComponentPad*%
%ADD16R,3.200000X2.000000*%
%TD*%
%TA.AperFunction,ComponentPad*%
%ADD17C,1.524000*%
%TD*%
%TA.AperFunction,ViaPad*%
%ADD18C,0.600000*%
%TD*%
%TA.AperFunction,Conductor*%
%ADD19C,0.200000*%
%TD*%
G04 APERTURE END LIST*
D10*
%TO.P,D2,1,DOUT*%
%TO.N,unconnected-(D2-DOUT-Pad1)*%
X100643750Y-44368750D03*
%TO.P,D2,2,VSS*%
%TO.N,GND*%
X100643750Y-46118750D03*
%TO.P,D2,3,DIN*%
%TO.N,Net-(D1-DOUT)*%
X104143750Y-46118750D03*
%TO.P,D2,4,VDD*%
%TO.N,+5V*%
X104143750Y-44368750D03*
%TD*%
D11*
%TO.P,SW6,1,1*%
%TO.N,Net-(U1-GPIO29{slash}ADC3{slash}A3)*%
X131290000Y-86930000D03*
%TO.P,SW6,2,2*%
%TO.N,GND*%
X124940000Y-89470000D03*
%TD*%
%TO.P,SW2,1,1*%
%TO.N,GND*%
X112290000Y-67880000D03*
%TO.P,SW2,2,2*%
%TO.N,Net-(U1-GPIO2{slash}SCK)*%
X105940000Y-70420000D03*
%TD*%
D12*
%TO.P,U2,1,GND*%
%TO.N,GND*%
X92990000Y-58420000D03*
D13*
%TO.P,U2,2,VCC*%
%TO.N,+5V*%
X92990000Y-55880000D03*
%TO.P,U2,3,SCL*%
%TO.N,Net-(U1-GPIO28{slash}ADC2{slash}A2)*%
X92990000Y-53340000D03*
%TO.P,U2,4,SDA*%
%TO.N,Net-(U1-GPIO27{slash}ADC1{slash}A1)*%
X92990000Y-50800000D03*
%TD*%
D10*
%TO.P,D1,1,DOUT*%
%TO.N,Net-(D1-DOUT)*%
X114931250Y-44368750D03*
%TO.P,D1,2,VSS*%
%TO.N,GND*%
X114931250Y-46118750D03*
%TO.P,D1,3,DIN*%
%TO.N,Net-(D1-DIN)*%
X118431250Y-46118750D03*
%TO.P,D1,4,VDD*%
%TO.N,+5V*%
X118431250Y-44368750D03*
%TD*%
D11*
%TO.P,SW5,1,1*%
%TO.N,Net-(U1-GPIO6{slash}SDA)*%
X112240000Y-86920000D03*
%TO.P,SW5,2,2*%
%TO.N,GND*%
X105890000Y-89460000D03*
%TD*%
%TO.P,SW3,1,1*%
%TO.N,Net-(U1-GPIO0{slash}TX)*%
X131290000Y-67870000D03*
%TO.P,SW3,2,2*%
%TO.N,GND*%
X124940000Y-70410000D03*
%TD*%
%TO.P,SW4,1,1*%
%TO.N,Net-(U1-GPIO7{slash}SCL)*%
X93240000Y-86920000D03*
%TO.P,SW4,2,2*%
%TO.N,GND*%
X86890000Y-89460000D03*
%TD*%
D14*
%TO.P,SW7,A,A*%
%TO.N,Net-(U1-GPIO3{slash}MOSI)*%
X131815000Y-51475000D03*
D15*
%TO.P,SW7,B,B*%
%TO.N,Net-(U1-GPIO4{slash}MISO)*%
X131815000Y-56475000D03*
%TO.P,SW7,C,C*%
%TO.N,GND*%
X131815000Y-53975000D03*
D16*
%TO.P,SW7,MP*%
%TO.N,N/C*%
X139315000Y-48375000D03*
X139315000Y-59575000D03*
D15*
%TO.P,SW7,S1,S1*%
%TO.N,unconnected-(SW7-PadS1)*%
X146315000Y-56475000D03*
%TO.P,SW7,S2,S2*%
%TO.N,GND*%
X146315000Y-51475000D03*
%TD*%
D11*
%TO.P,SW1,1,1*%
%TO.N,GND*%
X93240000Y-67880000D03*
%TO.P,SW1,2,2*%
%TO.N,Net-(U1-GPIO1{slash}RX)*%
X86890000Y-70420000D03*
%TD*%
D17*
%TO.P,U1,1,GPIO26/ADC0/A0*%
%TO.N,Net-(D1-DIN)*%
X72655750Y-44744750D03*
%TO.P,U1,2,GPIO27/ADC1/A1*%
%TO.N,Net-(U1-GPIO27{slash}ADC1{slash}A1)*%
X75195750Y-44744750D03*
%TO.P,U1,3,GPIO28/ADC2/A2*%
%TO.N,Net-(U1-GPIO28{slash}ADC2{slash}A2)*%
X77735750Y-44744750D03*
%TO.P,U1,4,GPIO29/ADC3/A3*%
%TO.N,Net-(U1-GPIO29{slash}ADC3{slash}A3)*%
X80275750Y-44744750D03*
%TO.P,U1,5,GPIO6/SDA*%
%TO.N,Net-(U1-GPIO6{slash}SDA)*%
X82815750Y-44744750D03*
%TO.P,U1,6,GPIO7/SCL*%
%TO.N,Net-(U1-GPIO7{slash}SCL)*%
X85355750Y-44744750D03*
%TO.P,U1,7,GPIO0/TX*%
%TO.N,Net-(U1-GPIO0{slash}TX)*%
X87895750Y-44744750D03*
%TO.P,U1,8,GPIO1/RX*%
%TO.N,Net-(U1-GPIO1{slash}RX)*%
X87895750Y-59984750D03*
%TO.P,U1,9,GPIO2/SCK*%
%TO.N,Net-(U1-GPIO2{slash}SCK)*%
X85355750Y-59984750D03*
%TO.P,U1,10,GPIO4/MISO*%
%TO.N,Net-(U1-GPIO4{slash}MISO)*%
X82815750Y-59984750D03*
%TO.P,U1,11,GPIO3/MOSI*%
%TO.N,Net-(U1-GPIO3{slash}MOSI)*%
X80275750Y-59984750D03*
%TO.P,U1,12,3V3*%
%TO.N,unconnected-(U1-3V3-Pad12)*%
X77735750Y-59984750D03*
%TO.P,U1,13,GND*%
%TO.N,GND*%
X75195750Y-59984750D03*
%TO.P,U1,14,VBUS*%
%TO.N,+5V*%
X72655750Y-59984750D03*
%TD*%
D18*
%TO.N,+5V*%
X90000000Y-56000000D03*
%TO.N,Net-(U1-GPIO3{slash}MOSI)*%
X125900000Y-59900000D03*
%TO.N,Net-(U1-GPIO0{slash}TX)*%
X97500000Y-44750000D03*
%TO.N,Net-(U1-GPIO6{slash}SDA)*%
X94500000Y-43700000D03*
%TO.N,Net-(U1-GPIO29{slash}ADC3{slash}A3)*%
X96300000Y-42700000D03*
%TD*%
D19*
%TO.N,Net-(U1-GPIO4{slash}MISO)*%
X127290000Y-61000000D02*
X91182900Y-61000000D01*
X131815000Y-56475000D02*
X127290000Y-61000000D01*
%TO.N,Net-(D1-DIN)*%
X121750000Y-41250000D02*
X121750000Y-42800000D01*
X76150500Y-41250000D02*
X121750000Y-41250000D01*
X72655750Y-44744750D02*
X76150500Y-41250000D01*
X121750000Y-42800000D02*
X118431250Y-46118750D01*
%TO.N,Net-(D1-DOUT)*%
X104143750Y-46118750D02*
X113181250Y-46118750D01*
X113181250Y-46118750D02*
X114931250Y-44368750D01*
%TO.N,GND*%
X75195750Y-59984750D02*
X76258750Y-58921750D01*
X86940000Y-89460000D02*
X124980000Y-89460000D01*
X86309686Y-71821000D02*
X88514184Y-71821000D01*
X78421750Y-58921750D02*
X79212750Y-59712750D01*
X79212750Y-64724064D02*
X86309686Y-71821000D01*
X79212750Y-59712750D02*
X79212750Y-64724064D01*
X124460500Y-53975000D02*
X131815000Y-53975000D01*
X112290000Y-67880000D02*
X122450000Y-67880000D01*
X147616000Y-57013892D02*
X147616000Y-52776000D01*
X134315000Y-51475000D02*
X146315000Y-51475000D01*
X114931250Y-46118750D02*
X116604250Y-46118750D01*
X134219892Y-70410000D02*
X147616000Y-57013892D01*
X101369750Y-46844750D02*
X114205250Y-46844750D01*
X124940000Y-70410000D02*
X134219892Y-70410000D01*
X124940000Y-89420000D02*
X124990000Y-89470000D01*
X92990000Y-58420000D02*
X100643750Y-50766250D01*
X88514184Y-71821000D02*
X92455184Y-67880000D01*
X100643750Y-46118750D02*
X101369750Y-46844750D01*
X122450000Y-67880000D02*
X124990000Y-70420000D01*
X92455184Y-67880000D02*
X93240000Y-67880000D01*
X124940000Y-70410000D02*
X124940000Y-89420000D01*
X76258750Y-58921750D02*
X78421750Y-58921750D01*
X147616000Y-52776000D02*
X146315000Y-51475000D01*
X124980000Y-89460000D02*
X124990000Y-89470000D01*
X131815000Y-53975000D02*
X134315000Y-51475000D01*
X100643750Y-50766250D02*
X100643750Y-46118750D01*
X116604250Y-46118750D02*
X124460500Y-53975000D01*
X114205250Y-46844750D02*
X114931250Y-46118750D01*
%TO.N,+5V*%
X117705250Y-43642750D02*
X103750000Y-43642750D01*
X99000000Y-49870000D02*
X92990000Y-55880000D01*
X101744750Y-45392750D02*
X99542750Y-45392750D01*
X99000000Y-45935500D02*
X99000000Y-49870000D01*
X99542750Y-45392750D02*
X99000000Y-45935500D01*
X104143750Y-44368750D02*
X104143750Y-44036500D01*
X90120000Y-55880000D02*
X92990000Y-55880000D01*
X90000000Y-56000000D02*
X90120000Y-55880000D01*
X103750000Y-43642750D02*
X103494750Y-43642750D01*
X103494750Y-43642750D02*
X101744750Y-45392750D01*
X118431250Y-44368750D02*
X117705250Y-43642750D01*
X104143750Y-44036500D02*
X103750000Y-43642750D01*
%TO.N,Net-(U1-GPIO1{slash}RX)*%
X87895750Y-69414250D02*
X86890000Y-70420000D01*
X87895750Y-59984750D02*
X87895750Y-69414250D01*
%TO.N,Net-(U1-GPIO2{slash}SCK)*%
X88354650Y-58921750D02*
X99852900Y-70420000D01*
X99852900Y-70420000D02*
X105940000Y-70420000D01*
X86418750Y-58921750D02*
X88354650Y-58921750D01*
X85355750Y-59984750D02*
X86418750Y-58921750D01*
%TO.N,Net-(U1-GPIO4{slash}MISO)*%
X82815750Y-59984750D02*
X84279750Y-58520750D01*
X88703650Y-58520750D02*
X91182900Y-61000000D01*
X84279750Y-58520750D02*
X88703650Y-58520750D01*
%TO.N,Net-(U1-GPIO3{slash}MOSI)*%
X125900000Y-59900000D02*
X125600000Y-60200000D01*
X82160500Y-58100000D02*
X80275750Y-59984750D01*
X90639196Y-58100000D02*
X82160500Y-58100000D01*
X92739196Y-60200000D02*
X90639196Y-58100000D01*
X125600000Y-60200000D02*
X92739196Y-60200000D01*
%TO.N,Net-(U1-GPIO0{slash}TX)*%
X87895750Y-44744750D02*
X92994750Y-44744750D01*
X93000000Y-44750000D02*
X97500000Y-44750000D01*
X92994750Y-44744750D02*
X93000000Y-44750000D01*
%TO.N,Net-(U1-GPIO6{slash}SDA)*%
X82815750Y-44744750D02*
X84460500Y-43100000D01*
X84460500Y-43100000D02*
X93900000Y-43100000D01*
X93900000Y-43100000D02*
X94500000Y-43700000D01*
%TO.N,Net-(U1-GPIO29{slash}ADC3{slash}A3)*%
X82320500Y-42700000D02*
X96300000Y-42700000D01*
X80275750Y-44744750D02*
X82320500Y-42700000D01*
%TO.N,Net-(U1-GPIO27{slash}ADC1{slash}A1)*%
X75195750Y-44744750D02*
X78289500Y-41651000D01*
X78289500Y-41651000D02*
X98250000Y-41651000D01*
X98250000Y-41651000D02*
X98250000Y-49500000D01*
X96950000Y-50800000D02*
X92990000Y-50800000D01*
X98250000Y-49500000D02*
X96950000Y-50800000D01*
%TD*%
M02*
