%TF.GenerationSoftware,KiCad,Pcbnew,9.0.6*%
%TF.CreationDate,2026-03-06T21:36:24+00:00*%
%TF.ProjectId,kicadproject,6b696361-6470-4726-9f6a-6563742e6b69,rev?*%
%TF.SameCoordinates,Original*%
%TF.FileFunction,Copper,L2,Bot*%
%TF.FilePolarity,Positive*%
%FSLAX46Y46*%
G04 Gerber Fmt 4.6, Leading zero omitted, Abs format (unit mm)*
G04 Created by KiCad (PCBNEW 9.0.6) date 2026-03-06 21:36:24*
%MOMM*%
%LPD*%
G01*
G04 APERTURE LIST*
G04 Aperture macros list*
%AMRoundRect*
0 Rectangle with rounded corners*
0 $1 Rounding radius*
0 $2 $3 $4 $5 $6 $7 $8 $9 X,Y pos of 4 corners*
0 Add a 4 corners polygon primitive as box body*
4,1,4,$2,$3,$4,$5,$6,$7,$8,$9,$2,$3,0*
0 Add four circle primitives for the rounded corners*
1,1,$1+$1,$2,$3*
1,1,$1+$1,$4,$5*
1,1,$1+$1,$6,$7*
1,1,$1+$1,$8,$9*
0 Add four rect primitives between the rounded corners*
20,1,$1+$1,$2,$3,$4,$5,0*
20,1,$1+$1,$4,$5,$6,$7,0*
20,1,$1+$1,$6,$7,$8,$9,0*
20,1,$1+$1,$8,$9,$2,$3,0*%
G04 Aperture macros list end*
%TA.AperFunction,ComponentPad*%
%ADD10C,2.200000*%
%TD*%
%TA.AperFunction,ComponentPad*%
%ADD11RoundRect,0.170000X0.680000X-0.680000X0.680000X0.680000X-0.680000X0.680000X-0.680000X-0.680000X0*%
%TD*%
%TA.AperFunction,ComponentPad*%
%ADD12C,1.700000*%
%TD*%
%TA.AperFunction,ComponentPad*%
%ADD13R,2.000000X2.000000*%
%TD*%
%TA.AperFunction,ComponentPad*%
%ADD14C,2.000000*%
%TD*%
%TA.AperFunction,ComponentPad*%
%ADD15R,3.200000X2.000000*%
%TD*%
%TA.AperFunction,SMDPad,CuDef*%
%ADD16RoundRect,0.152400X0.609600X-1.063600X0.609600X1.063600X-0.609600X1.063600X-0.609600X-1.063600X0*%
%TD*%
%TA.AperFunction,ComponentPad*%
%ADD17C,1.524000*%
%TD*%
%TA.AperFunction,SMDPad,CuDef*%
%ADD18RoundRect,0.152400X-0.609600X1.063600X-0.609600X-1.063600X0.609600X-1.063600X0.609600X1.063600X0*%
%TD*%
%TA.AperFunction,ViaPad*%
%ADD19C,0.600000*%
%TD*%
%TA.AperFunction,Conductor*%
%ADD20C,0.200000*%
%TD*%
G04 APERTURE END LIST*
D10*
%TO.P,SW6,1,1*%
%TO.N,Net-(U1-GPIO29{slash}ADC3{slash}A3)*%
X131290000Y-86930000D03*
%TO.P,SW6,2,2*%
%TO.N,GND*%
X124940000Y-89470000D03*
%TD*%
%TO.P,SW2,1,1*%
%TO.N,GND*%
X112290000Y-67880000D03*
%TO.P,SW2,2,2*%
%TO.N,Net-(U1-GPIO2{slash}SCK)*%
X105940000Y-70420000D03*
%TD*%
D11*
%TO.P,U2,1,GND*%
%TO.N,GND*%
X92990000Y-58420000D03*
D12*
%TO.P,U2,2,VCC*%
%TO.N,+5V*%
X92990000Y-55880000D03*
%TO.P,U2,3,SCL*%
%TO.N,Net-(U1-GPIO28{slash}ADC2{slash}A2)*%
X92990000Y-53340000D03*
%TO.P,U2,4,SDA*%
%TO.N,Net-(U1-GPIO27{slash}ADC1{slash}A1)*%
X92990000Y-50800000D03*
%TD*%
D10*
%TO.P,SW5,1,1*%
%TO.N,Net-(U1-GPIO6{slash}SDA)*%
X112240000Y-86920000D03*
%TO.P,SW5,2,2*%
%TO.N,GND*%
X105890000Y-89460000D03*
%TD*%
%TO.P,SW3,1,1*%
%TO.N,Net-(U1-GPIO0{slash}TX)*%
X131290000Y-67870000D03*
%TO.P,SW3,2,2*%
%TO.N,GND*%
X124940000Y-70410000D03*
%TD*%
%TO.P,SW4,1,1*%
%TO.N,Net-(U1-GPIO7{slash}SCL)*%
X93240000Y-86920000D03*
%TO.P,SW4,2,2*%
%TO.N,GND*%
X86890000Y-89460000D03*
%TD*%
D13*
%TO.P,SW7,A,A*%
%TO.N,Net-(U1-GPIO3{slash}MOSI)*%
X131815000Y-51475000D03*
D14*
%TO.P,SW7,B,B*%
%TO.N,Net-(U1-GPIO4{slash}MISO)*%
X131815000Y-56475000D03*
%TO.P,SW7,C,C*%
%TO.N,GND*%
X131815000Y-53975000D03*
D15*
%TO.P,SW7,MP*%
%TO.N,N/C*%
X139315000Y-48375000D03*
X139315000Y-59575000D03*
D14*
%TO.P,SW7,S1,S1*%
%TO.N,unconnected-(SW7-PadS1)*%
X146315000Y-56475000D03*
%TO.P,SW7,S2,S2*%
%TO.N,GND*%
X146315000Y-51475000D03*
%TD*%
D10*
%TO.P,SW1,1,1*%
%TO.N,GND*%
X93240000Y-67880000D03*
%TO.P,SW1,2,2*%
%TO.N,Net-(U1-GPIO1{slash}RX)*%
X86890000Y-70420000D03*
%TD*%
D16*
%TO.P,U1,1,GPIO26/ADC0/A0*%
%TO.N,Net-(D1-DIN)*%
X72655750Y-43909750D03*
D17*
X72655750Y-44744750D03*
D16*
%TO.P,U1,2,GPIO27/ADC1/A1*%
%TO.N,Net-(U1-GPIO27{slash}ADC1{slash}A1)*%
X75195750Y-43909750D03*
D17*
X75195750Y-44744750D03*
D16*
%TO.P,U1,3,GPIO28/ADC2/A2*%
%TO.N,Net-(U1-GPIO28{slash}ADC2{slash}A2)*%
X77735750Y-43909750D03*
D17*
X77735750Y-44744750D03*
D16*
%TO.P,U1,4,GPIO29/ADC3/A3*%
%TO.N,Net-(U1-GPIO29{slash}ADC3{slash}A3)*%
X80275750Y-43909750D03*
D17*
X80275750Y-44744750D03*
D16*
%TO.P,U1,5,GPIO6/SDA*%
%TO.N,Net-(U1-GPIO6{slash}SDA)*%
X82815750Y-43909750D03*
D17*
X82815750Y-44744750D03*
D16*
%TO.P,U1,6,GPIO7/SCL*%
%TO.N,Net-(U1-GPIO7{slash}SCL)*%
X85355750Y-43909750D03*
D17*
X85355750Y-44744750D03*
D16*
%TO.P,U1,7,GPIO0/TX*%
%TO.N,Net-(U1-GPIO0{slash}TX)*%
X87895750Y-43909750D03*
D17*
X87895750Y-44744750D03*
%TO.P,U1,8,GPIO1/RX*%
%TO.N,Net-(U1-GPIO1{slash}RX)*%
X87895750Y-59984750D03*
D18*
X87895750Y-60819750D03*
D17*
%TO.P,U1,9,GPIO2/SCK*%
%TO.N,Net-(U1-GPIO2{slash}SCK)*%
X85355750Y-59984750D03*
D18*
X85355750Y-60819750D03*
D17*
%TO.P,U1,10,GPIO4/MISO*%
%TO.N,Net-(U1-GPIO4{slash}MISO)*%
X82815750Y-59984750D03*
D18*
X82815750Y-60819750D03*
D17*
%TO.P,U1,11,GPIO3/MOSI*%
%TO.N,Net-(U1-GPIO3{slash}MOSI)*%
X80275750Y-59984750D03*
D18*
X80275750Y-60819750D03*
D17*
%TO.P,U1,12,3V3*%
%TO.N,unconnected-(U1-3V3-Pad12)*%
X77735750Y-59984750D03*
D18*
X77735750Y-60819750D03*
D17*
%TO.P,U1,13,GND*%
%TO.N,GND*%
X75195750Y-59984750D03*
D18*
X75195750Y-60819750D03*
D17*
%TO.P,U1,14,VBUS*%
%TO.N,+5V*%
X72655750Y-59984750D03*
D18*
X72655750Y-60819750D03*
%TD*%
D19*
%TO.N,+5V*%
X90000000Y-56000000D03*
%TO.N,Net-(U1-GPIO3{slash}MOSI)*%
X125900000Y-59900000D03*
%TO.N,Net-(U1-GPIO0{slash}TX)*%
X97500000Y-44750000D03*
%TO.N,Net-(U1-GPIO6{slash}SDA)*%
X94500000Y-43700000D03*
%TO.N,Net-(U1-GPIO29{slash}ADC3{slash}A3)*%
X96300000Y-42700000D03*
%TD*%
D20*
%TO.N,GND*%
X93240000Y-58670000D02*
X92990000Y-58420000D01*
X93240000Y-67880000D02*
X93240000Y-58670000D01*
%TO.N,+5V*%
X90000000Y-61034126D02*
X90000000Y-56000000D01*
X72655750Y-60819750D02*
X74172750Y-62336750D01*
X88697376Y-62336750D02*
X90000000Y-61034126D01*
X74172750Y-62336750D02*
X88697376Y-62336750D01*
%TO.N,Net-(U1-GPIO3{slash}MOSI)*%
X125900000Y-57390000D02*
X125900000Y-59900000D01*
X131815000Y-51475000D02*
X125900000Y-57390000D01*
X125900000Y-59900000D02*
X125900000Y-60100000D01*
%TO.N,Net-(U1-GPIO0{slash}TX)*%
X131290000Y-67870000D02*
X108170000Y-44750000D01*
X108170000Y-44750000D02*
X97500000Y-44750000D01*
%TO.N,Net-(U1-GPIO7{slash}SCL)*%
X93240000Y-86920000D02*
X93240000Y-69861314D01*
X93240000Y-69861314D02*
X91500000Y-68121314D01*
X90000000Y-42000000D02*
X85750000Y-42000000D01*
X91500000Y-43500000D02*
X90000000Y-42000000D01*
X85750000Y-44350500D02*
X85355750Y-44744750D01*
X85750000Y-42000000D02*
X85750000Y-44350500D01*
X91500000Y-68121314D02*
X91500000Y-43500000D01*
%TO.N,Net-(U1-GPIO6{slash}SDA)*%
X97000000Y-71680000D02*
X112240000Y-86920000D01*
X97000000Y-46200000D02*
X97000000Y-71680000D01*
X94500000Y-43700000D02*
X97000000Y-46200000D01*
%TO.N,Net-(U1-GPIO29{slash}ADC3{slash}A3)*%
X96300000Y-44399943D02*
X122469000Y-70568943D01*
X96300000Y-42700000D02*
X96300000Y-44399943D01*
X122469000Y-70568943D02*
X122469000Y-78109000D01*
X122469000Y-78109000D02*
X131290000Y-86930000D01*
%TO.N,Net-(U1-GPIO28{slash}ADC2{slash}A2)*%
X84292750Y-45185060D02*
X84292750Y-42654124D01*
X90166100Y-41599000D02*
X94141000Y-45573900D01*
X94141000Y-52189000D02*
X92990000Y-53340000D01*
X94141000Y-45573900D02*
X94141000Y-52189000D01*
X85347874Y-41599000D02*
X90166100Y-41599000D01*
X84292750Y-42654124D02*
X85347874Y-41599000D01*
X78798750Y-45807750D02*
X83670060Y-45807750D01*
X77735750Y-44744750D02*
X78798750Y-45807750D01*
X83670060Y-45807750D02*
X84292750Y-45185060D01*
%TD*%
M02*
