M48
; DRILL file {KiCad 9.0.6} date 2026-03-06T21:36:27+0000
; FORMAT={-:-/ absolute / metric / decimal}
; #@! TF.CreationDate,2026-03-06T21:36:27+00:00
; #@! TF.GenerationSoftware,Kicad,Pcbnew,9.0.6
; #@! TF.FileFunction,Plated,1,2,PTH
FMAT,2
METRIC
; #@! TA.AperFunction,Plated,PTH,ViaDrill
T1C0.300
; #@! TA.AperFunction,Plated,PTH,ComponentDrill
T2C0.889
; #@! TA.AperFunction,Plated,PTH,ComponentDrill
T3C1.000
; #@! TA.AperFunction,Plated,PTH,ComponentDrill
T4C1.500
%
G90
G05
T1
X90.0Y-56.0
X94.5Y-43.7
X96.3Y-42.7
X97.5Y-44.75
X125.9Y-59.9
T2
X72.656Y-44.745
X72.656Y-59.985
X75.196Y-44.745
X75.196Y-59.985
X77.736Y-44.745
X77.736Y-59.985
X80.276Y-44.745
X80.276Y-59.985
X82.816Y-44.745
X82.816Y-59.985
X85.356Y-44.745
X85.356Y-59.985
X87.896Y-44.745
X87.896Y-59.985
T3
X92.99Y-50.8
X92.99Y-53.34
X92.99Y-55.88
X92.99Y-58.42
X131.815Y-51.475
X131.815Y-53.975
X131.815Y-56.475
X146.315Y-51.475
X146.315Y-56.475
T4
X86.89Y-70.42
X86.89Y-89.46
X93.24Y-67.88
X93.24Y-86.92
X105.89Y-89.46
X105.94Y-70.42
X112.24Y-86.92
X112.29Y-67.88
X124.94Y-70.41
X124.94Y-89.47
X131.29Y-67.87
X131.29Y-86.93
T4
G00X138.665Y-48.375
M15
G01X139.965Y-48.375
M16
G05
G00X138.665Y-59.575
M15
G01X139.965Y-59.575
M16
G05
M30
